<?xml version="1.0" encoding="utf-8"?>
<!-- Generator: Adobe Illustrator 16.0.0, SVG Export Plug-In . SVG Version: 6.00 Build 0)  -->
<!DOCTYPE svg PUBLIC "-//W3C//DTD SVG 1.1//EN" "http://www.w3.org/Graphics/SVG/1.1/DTD/svg11.dtd">
<svg version="1.1" id="Layer_1" xmlns="http://www.w3.org/2000/svg" xmlns:xlink="http://www.w3.org/1999/xlink" x="0px" y="0px"
	 width="24px" height="24px" viewBox="0 0 24 24" enable-background="new 0 0 24 24" xml:space="preserve">
<path fill="#FFFFFF" d="M10,3.002c4.411,0,8,2.849,8,6.35c0,3.035-3.029,6.311-7.925,6.311c-1.58,0-2.718-0.317-3.718-0.562
	c-0.966,0.594-1.256,0.813-3.006,1.373c0.415-1.518,0.362-2.182,0.331-3.184C2.845,12.29,2,11.222,2,9.352
	C2,5.851,5.589,3.002,10,3.002z M10,1C4.719,1,0,4.526,0,9.352c0,1.711,0.615,3.391,1.705,4.695
	c0.047,1.527-0.851,3.719-1.661,5.313c2.168-0.391,5.252-1.258,6.649-2.115c1.181,0.289,2.312,0.421,3.382,0.421
	c5.903,0,9.925-4.038,9.925-8.313C20,4.5,15.249,1,10,1z M21.535,12.174c-0.161,0.488-0.361,0.961-0.602,1.416
	c1.678,1.262,2.258,3.227,0.465,5.365c-0.021,0.745-0.049,1.049,0.138,1.865c-0.892-0.307-0.979-0.393-1.665-0.813
	c-2.127,0.519-4.266,0.696-6.089-0.854c-0.563,0.158-1.146,0.277-1.74,0.363c1.513,1.877,4.298,2.897,7.577,2.101
	c0.914,0.562,2.933,1.127,4.352,1.385c-0.529-1.045-1.117-2.479-1.088-3.479C24.639,17.424,24.426,14.086,21.535,12.174z M6.5,8.411
	c-0.591,0-1.071,0.479-1.071,1.071s0.48,1.071,1.071,1.071s1.071-0.479,1.071-1.071S7.091,8.411,6.5,8.411z M10,8.411
	c-0.591,0-1.071,0.479-1.071,1.071s0.48,1.071,1.071,1.071s1.071-0.479,1.071-1.071S10.591,8.411,10,8.411z M13.5,8.411
	c-0.591,0-1.071,0.479-1.071,1.071s0.48,1.071,1.071,1.071s1.07-0.479,1.07-1.071S14.091,8.411,13.5,8.411z"/>
</svg>
