<?xml version="1.0" encoding="utf-8"?>
<!-- Generator: Adobe Illustrator 16.0.0, SVG Export Plug-In . SVG Version: 6.00 Build 0)  -->
<!DOCTYPE svg PUBLIC "-//W3C//DTD SVG 1.1//EN" "http://www.w3.org/Graphics/SVG/1.1/DTD/svg11.dtd">
<svg version="1.1" id="Layer_1" xmlns="http://www.w3.org/2000/svg" xmlns:xlink="http://www.w3.org/1999/xlink" x="0px" y="0px"
	 width="24px" height="24px" viewBox="0 0 24 24" enable-background="new 0 0 24 24" xml:space="preserve">
<path fill="#FFFFFF" d="M22,2v20H2V2H22z M24,0H0v24h24V0z M20,7h-8v1h8V7z M20,12h-8v1h8V12z M20,17h-8v1h8V17z M9.484,5.696
	L8.774,5L6.221,7.607L4.682,6.155l-0.698,0.71L6.234,9L9.484,5.696z M9.484,10.696L8.774,10l-2.552,2.607l-1.539-1.453l-0.698,0.709
	L6.234,14L9.484,10.696z M9.484,15.695L8.774,15l-2.552,2.607l-1.539-1.453l-0.698,0.709L6.234,19L9.484,15.695z"/>
</svg>
