<?xml version="1.0" encoding="utf-8"?>
<!-- Generator: Adobe Illustrator 16.0.0, SVG Export Plug-In . SVG Version: 6.00 Build 0)  -->
<!DOCTYPE svg PUBLIC "-//W3C//DTD SVG 1.1//EN" "http://www.w3.org/Graphics/SVG/1.1/DTD/svg11.dtd">
<svg version="1.1" id="Layer_1" xmlns="http://www.w3.org/2000/svg" xmlns:xlink="http://www.w3.org/1999/xlink" x="0px" y="0px"
	 width="24px" height="24px" viewBox="0 0 24 24" enable-background="new 0 0 24 24" xml:space="preserve">
<path fill="#FFFFFF" d="M14.139,2.63l3.068-1.441l0.786,3.297l3.39,0.032L20.661,7.83l3.038,1.5l-2.088,2.671l2.088,2.67
	l-3.038,1.499l0.722,3.313l-3.39,0.033l-0.786,3.295l-3.068-1.44L12,24l-2.138-2.63l-3.068,1.44l-0.787-3.295l-3.389-0.033
	L3.34,16.17l-3.039-1.499l2.088-2.67L0.301,9.33l3.039-1.5L2.618,4.518l3.389-0.032l0.787-3.297L9.862,2.63L12,0L14.139,2.63z
	 M10.397,4.972L8.094,3.891l-0.59,2.474L4.962,6.389l0.542,2.483L3.225,9.997l1.566,2.004l-1.566,2.002l2.279,1.124l-0.542,2.484
	l2.542,0.025l0.59,2.473l2.303-1.082L12,21l1.604-1.973l2.302,1.082l0.59-2.473l2.543-0.025l-0.542-2.484l2.279-1.124l-1.565-2.002
	l1.565-2.004l-2.279-1.125l0.542-2.483l-2.543-0.024l-0.59-2.474l-2.302,1.081L12,3L10.397,4.972z M12,14.5
	c0.689,0,1.25,0.561,1.25,1.25S12.689,17,12,17c-0.69,0-1.25-0.561-1.25-1.25S11.31,14.5,12,14.5z M13,13.553h-2V7h2V13.553z"/>
</svg>
