<?xml version="1.0" encoding="utf-8"?>
<!-- Generator: Adobe Illustrator 16.0.0, SVG Export Plug-In . SVG Version: 6.00 Build 0)  -->
<!DOCTYPE svg PUBLIC "-//W3C//DTD SVG 1.1//EN" "http://www.w3.org/Graphics/SVG/1.1/DTD/svg11.dtd">
<svg version="1.1" id="Layer_1" xmlns="http://www.w3.org/2000/svg" xmlns:xlink="http://www.w3.org/1999/xlink" x="0px" y="0px"
	 width="24px" height="24px" viewBox="0 0 24 24" enable-background="new 0 0 24 24" xml:space="preserve">
<path fill="#FFFFFF" d="M13.473,7.196c-0.425-0.439-0.4-1.127,0.035-1.552l4.461-4.326C18.188,1.107,18.467,1,18.744,1
	c0.281,0,0.563,0.11,0.775,0.331L13.473,7.196z M6.139,18.217C6.047,18.307,6,18.425,6,18.544C6,18.794,6.204,19,6.456,19
	c0.114,0,0.229-0.042,0.317-0.128l0.749-0.729l-0.633-0.654L6.139,18.217z M12.469,9.792l-2.563,2.485
	c-1.378,1.336-2.081,2.629-2.73,4.437l1.132,1.169c1.825-0.593,3.14-1.255,4.518-2.591l2.563-2.485L12.469,9.792z M19.945,2.133
	l-6.604,6.405l3.326,3.434l6.604-6.403C23.757,5.1,24,4.476,24,3.851C24,1.763,21.47,0.655,19.945,2.133z M18,13.466V21H2V9h8.013
	l2.058-2H0v16h20V11.527L18,13.466z"/>
</svg>
