<?xml version="1.0" encoding="utf-8"?>
<!-- Generator: Adobe Illustrator 16.0.0, SVG Export Plug-In . SVG Version: 6.00 Build 0)  -->
<!DOCTYPE svg PUBLIC "-//W3C//DTD SVG 1.1//EN" "http://www.w3.org/Graphics/SVG/1.1/DTD/svg11.dtd">
<svg version="1.1" id="Layer_1" xmlns="http://www.w3.org/2000/svg" xmlns:xlink="http://www.w3.org/1999/xlink" x="0px" y="0px"
	 width="24px" height="24px" viewBox="0 0 24 24" enable-background="new 0 0 24 24" xml:space="preserve">
<g>
	<path fill="#FFFFFF" d="M23.676,4.972l-0.041-0.042c-0.541-0.557-1.497-0.557-2.035,0L19.44,7.201
		c-0.126,0.129-0.293,0.129-0.417,0l-3.031-2.915c-0.29-0.257-0.664-0.428-1.08-0.428h-4.525c-0.125,0-0.208,0.042-0.249,0.086
		L6.317,7.715c-0.54,0.6-0.581,1.542-0.083,2.101c0.249,0.299,0.623,0.471,1.037,0.471c0.416,0,0.79-0.171,1.039-0.471l2.699-2.958
		h0.956l-6.312,7.287H1.75c-0.955,0-1.702,0.728-1.743,1.629c-0.042,0.471,0.124,0.942,0.456,1.285
		c0.333,0.299,0.747,0.515,1.205,0.515H7.48c0.124,0,0.208-0.043,0.29-0.129l2.99-3.3l2.492,2.7l-0.747,4.971
		c-0.208,0.859,0.207,1.673,0.913,2.017c0.25,0.127,0.457,0.17,0.706,0.17s0.498-0.043,0.747-0.17
		c0.416-0.214,0.747-0.645,0.872-1.157l1.287-7.158c0-0.13-0.041-0.301-0.124-0.388l-3.447-3.557L16.2,8.744l1.911,1.972
		c0.54,0.558,1.453,0.558,1.993,0l3.571-3.687C24.215,6.472,24.215,5.529,23.676,4.972z"/>
	<path fill="#FFFFFF" d="M19.105,5.144c1.371,0,2.494-1.157,2.494-2.572C21.6,1.157,20.477,0,19.105,0
		c-1.37,0-2.49,1.157-2.49,2.571C16.615,3.987,17.735,5.144,19.105,5.144z"/>
</g>
</svg>
